<svg width="21" height="21" viewBox="0 0 21 21" xmlns="http://www.w3.org/2000/svg">
<path d="M16.222 1.6919C16.6041 1.29316 16.5906 0.66014 16.1919 0.278011C15.7932 -0.104118 15.1601 -0.0906489 14.778 0.308094L11.1102 4.1354L9.6392 2.91278C9.21447 2.55976 8.58398 2.61789 8.23096 3.04262C7.87794 3.46734 7.93607 4.09784 8.3608 4.45086L10.5483 6.26904C10.952 6.60455 11.5463 6.57087 11.9095 6.1919L16.222 1.6919ZM18.0631 4.5096H18.7805L17.135 10.8488H7.60136L4.62275 2.4955L4.62224 2.49393C4.57449 2.34718 4.49156 2.21403 4.38054 2.10585C4.26959 1.99775 4.13387 1.91778 3.98495 1.87276L1.25356 1.04229C1.13193 1.00531 1.00412 0.992395 0.877446 1.00428C0.750772 1.01617 0.627705 1.05263 0.515271 1.11157C0.288201 1.23061 0.118228 1.43401 0.0427445 1.67704C-0.0327391 1.92007 -0.00755033 2.18281 0.11277 2.40747C0.23309 2.63212 0.438685 2.80028 0.684326 2.87497L2.92591 3.5545L5.87513 11.7946L4.92834 12.5599L4.82359 12.6636L4.81664 12.6715C4.50064 13.0318 4.32153 13.4898 4.31015 13.9667C4.29878 14.4436 4.45585 14.9095 4.75432 15.2841L4.75821 15.2889C4.96952 15.5431 5.23803 15.7449 5.54228 15.8781C5.84417 16.0102 6.17293 16.0712 6.50264 16.0563H17.6153C17.8715 16.0563 18.1173 15.9556 18.2984 15.7763C18.4796 15.5971 18.5814 15.354 18.5814 15.1005C18.5814 14.847 18.4796 14.6039 18.2984 14.4246C18.1172 14.2454 17.8715 14.1447 17.6153 14.1447H6.39542C6.37154 14.1433 6.34835 14.1361 6.32789 14.1238C6.30637 14.1108 6.28859 14.0925 6.27627 14.0708C6.26395 14.049 6.25752 14.0245 6.25758 13.9995C6.25761 13.9881 6.25901 13.9767 6.26172 13.9657L7.72969 12.7604H17.9051C18.1271 12.7649 18.3438 12.6936 18.5189 12.5585C18.695 12.4226 18.8181 12.2303 18.8672 12.0148L20.9792 3.76435L20.9805 3.75811C21.0099 3.61562 21.006 3.46838 20.9692 3.32759C20.9327 3.18806 20.8648 3.05852 20.7705 2.94866C20.681 2.8404 20.5686 2.75289 20.4412 2.6923C20.3125 2.63115 20.1718 2.59896 20.0291 2.59802H18.0631C17.4124 2.59802 16.9519 3.23397 17.155 3.8521C17.2839 4.24441 17.6501 4.5096 18.0631 4.5096ZM7.38164 21C8.37514 21 9.18053 20.2032 9.18053 19.2203C9.18053 18.2373 8.37514 17.4405 7.38164 17.4405C6.38814 17.4405 5.58275 18.2373 5.58275 19.2203C5.58275 20.2032 6.38814 21 7.38164 21ZM16.4893 21C17.4828 21 18.2882 20.2032 18.2882 19.2203C18.2882 18.2373 17.4828 17.4405 16.4893 17.4405C15.4958 17.4405 14.6905 18.2373 14.6905 19.2203C14.6905 20.2032 15.4958 21 16.4893 21Z" />
</svg>
