<svg display="none" xmlns="http://www.w3.org/2000/svg">
   <!-- Поиск -->
   <symbol id="search" viewBox="0 0 24 24">
      <g>
         <path fill="var(--search-icon-color)" d="M20.71 19.29l-3.4-3.39A7.92 7.92 0 0 0 19 11a8 8 0 1 0-8 8 7.92 7.92 0 0 0 4.9-1.69l3.39 3.4a1 1 0 0 0 1.42 0 1 1 0 0 0 0-1.42zM5 11a6 6 0 1 1 6 6 6 6 0 0 1-6-6z"/>
      </g>
   </symbol>

   <!-- Глазик Просмотренный товар -->
   <symbol id="eye" viewBox="0 0 24 24">
      <g>
      <path d="M21.87 11.5c-.64-1.11-4.16-6.68-10.14-6.5-5.53.14-8.73 5-9.6 6.5a1 1 0 0 0 0
         1c.63 1.09 4 6.5 9.89 6.5h.25c5.53-.14 8.74-5 9.6-6.5a1 1 0 0 0 0-1zM12.22 17c-4.31.1-7.12-3.59-8-5
         1-1.61 3.61-4.9 7.61-5 4.29-.11 7.11 3.59 8 5-1.03 1.61-3.61 4.9-7.61 5z"></path>
         <path d="M12 8.5a3.5 3.5 0 1 0 3.5 3.5A3.5 3.5 0 0 0 12 8.5zm0 5a1.5 1.5 0 1 1 1.5-1.5 1.5 1.5 0 0 1-1.5 1.5z">
         </path>
      </g>
   </symbol>

   <!-- Понравившийся товар -->
   <symbol id="like" viewBox="0 0 24 24">
      <g>
         <path
            d="M20.16,5A6.29,6.29,0,0,0,12,4.36a6.27,6.27,0,0,0-8.16,9.48l6.21,6.22a2.78,2.78,0,0,0,3.9,0l6.21-6.22A6.27,6.27,0,0,0,20.16,5Zm-1.41,7.46-6.21,6.21a.76.76,0,0,1-1.08,0L5.25,12.43a4.29,4.29,0,0,1,0-6,4.27,4.27,0,0,1,6,0,1,1,0,0,0,1.42,0,4.27,4.27,0,0,1,6,0A4.29,4.29,0,0,1,18.75,12.43Z"></path>
      </g>
   </symbol>

   <!-- Сравнение товара -->
   <symbol id="compare" viewBox="0 0 21 22">
      <g>
         <path
            d="M1 10C0.734784 10 0.48043 10.1054 0.292893 10.2929C0.105357 10.4804 0 10.7348 0 11V19C0 19.2652 0.105357 19.5196 0.292893 19.7071C0.48043 19.8946 0.734784 20 1 20C1.26522 20 1.51957 19.8946 1.70711 19.7071C1.89464 19.5196 2 19.2652 2 19V11C2 10.7348 1.89464 10.4804 1.70711 10.2929C1.51957 10.1054 1.26522 10 1 10ZM6 0C5.73478 0 5.48043 0.105357 5.29289 0.292893C5.10536 0.48043 5 0.734784 5 1V19C5 19.2652 5.10536 19.5196 5.29289 19.7071C5.48043 19.8946 5.73478 20 6 20C6.26522 20 6.51957 19.8946 6.70711 19.7071C6.89464 19.5196 7 19.2652 7 19V1C7 0.734784 6.89464 0.48043 6.70711 0.292893C6.51957 0.105357 6.26522 0 6 0ZM16 14C15.7348 14 15.4804 14.1054 15.2929 14.2929C15.1054 14.4804 15 14.7348 15 15V19C15 19.2652 15.1054 19.5196 15.2929 19.7071C15.4804 19.8946 15.7348 20 16 20C16.2652 20 16.5196 19.8946 16.7071 19.7071C16.8946 19.5196 17 19.2652 17 19V15C17 14.7348 16.8946 14.4804 16.7071 14.2929C16.5196 14.1054 16.2652 14 16 14ZM11 6C10.7348 6 10.4804 6.10536 10.2929 6.29289C10.1054 6.48043 10 6.73478 10 7V19C10 19.2652 10.1054 19.5196 10.2929 19.7071C10.4804 19.8946 10.7348 20 11 20C11.2652 20 11.5196 19.8946 11.7071 19.7071C11.8946 19.5196 12 19.2652 12 19V7C12 6.73478 11.8946 6.48043 11.7071 6.29289C11.5196 6.10536 11.2652 6 11 6Z" />
      </g>
   </symbol>

   <!-- Корзина -->
   <symbol id="cart" viewBox="0 0 22 21">
      <g>
         <path
            d="M7.38164 19.7034C8.20955 19.7034 8.88071 19.0394 8.88071 18.2203C8.88071 17.4011 8.20955 16.7371 7.38164 16.7371C6.55372 16.7371 5.88257 17.4011 5.88257 18.2203C5.88257 19.0394 6.55372 19.7034 7.38164 19.7034Z" />
         <path
            d="M16.4893 19.7034C17.3173 19.7034 17.9884 19.0394 17.9884 18.2203C17.9884 17.4011 17.3173 16.7371 16.4893 16.7371C15.6614 16.7371 14.9903 17.4011 14.9903 18.2203C14.9903 19.0394 15.6614 19.7034 16.4893 19.7034Z" />
         <path
            d="M20.5402 2.13853C20.4782 2.06292 20.4 2.00183 20.3113 1.95966C20.2226 1.91749 20.1256 1.89529 20.0272 1.89464H9.06608C8.61737 1.89464 8.2998 2.33323 8.43984 2.75953C8.52872 3.03009 8.7813 3.21298 9.06608 3.21298H19.1544L17.3755 10.1455H7.38164L4.33685 1.58484C4.30392 1.48363 4.24673 1.3918 4.17016 1.31719C4.09359 1.24259 3.99992 1.18741 3.89713 1.15638L1.16548 0.325828C1.08149 0.300292 0.993233 0.291373 0.905756 0.299582C0.818278 0.307791 0.733291 0.332967 0.655647 0.373671C0.498839 0.455877 0.38146 0.596345 0.329333 0.764174C0.277206 0.932002 0.294601 1.11344 0.377691 1.26858C0.46078 1.42372 0.602759 1.53985 0.772393 1.59143L3.16425 2.31651L6.22236 10.8969L5.1297 11.7802L5.04308 11.8659C4.77281 12.174 4.61961 12.5658 4.60988 12.9737C4.60016 13.3816 4.7345 13.78 4.98978 14.1005C5.17138 14.319 5.40213 14.4924 5.66359 14.6068C5.92505 14.7213 6.20996 14.7736 6.49552 14.7596H17.6153C17.792 14.7596 17.9615 14.6902 18.0864 14.5666C18.2114 14.4429 18.2816 14.2753 18.2816 14.1005C18.2816 13.9256 18.2114 13.758 18.0864 13.6344C17.9615 13.5107 17.792 13.4413 17.6153 13.4413H6.38892C6.3122 13.4387 6.23745 13.4166 6.17189 13.3771C6.10634 13.3375 6.05219 13.282 6.01468 13.2157C5.97717 13.1494 5.95757 13.0747 5.95777 12.9988C5.95797 12.9228 5.97796 12.8482 6.01582 12.7821L7.62149 11.4638H17.9085C18.0625 11.4675 18.213 11.4183 18.3345 11.3246C18.456 11.2308 18.5409 11.0983 18.5747 10.9497L20.6867 2.69883C20.707 2.60056 20.7043 2.49901 20.6789 2.40191C20.6535 2.30482 20.6061 2.21474 20.5402 2.13853Z" />
         <path
            d="M20.0272 1.89464C20.1256 1.89529 20.2226 1.91749 20.3113 1.95966C20.4 2.00183 20.4782 2.06292 20.5402 2.13853C20.6061 2.21474 20.6535 2.30482 20.6789 2.40191C20.7043 2.49901 20.707 2.60056 20.6867 2.69883L18.5747 10.9497C18.5409 11.0983 18.456 11.2308 18.3345 11.3246C18.213 11.4183 18.0625 11.4675 17.9085 11.4638H7.62149L6.01582 12.7821C5.97796 12.8482 5.95797 12.9228 5.95777 12.9988C5.95757 13.0747 5.97717 13.1494 6.01468 13.2157C6.05219 13.282 6.10634 13.3375 6.17189 13.3771C6.23745 13.4166 6.3122 13.4387 6.38892 13.4413H17.6153C17.792 13.4413 17.9615 13.5107 18.0864 13.6344C18.2114 13.758 18.2816 13.9256 18.2816 14.1005C18.2816 14.2753 18.2114 14.4429 18.0864 14.5666C17.9615 14.6902 17.792 14.7596 17.6153 14.7596H6.49552C6.20996 14.7736 5.92505 14.7213 5.66359 14.6068C5.40213 14.4924 5.17138 14.319 4.98978 14.1005C4.7345 13.78 4.60016 13.3816 4.60988 12.9737C4.61961 12.5658 4.77281 12.174 5.04308 11.8659L5.1297 11.7802L6.22236 10.8969L3.16425 2.31651L0.772393 1.59143C0.602759 1.53985 0.46078 1.42372 0.377691 1.26858C0.294601 1.11344 0.277206 0.932002 0.329333 0.764174C0.38146 0.596345 0.498839 0.455877 0.655647 0.373671C0.733291 0.332967 0.818278 0.307791 0.905756 0.299582C0.993233 0.291373 1.08149 0.300292 1.16548 0.325828L3.89713 1.15638C3.99992 1.18741 4.09359 1.24259 4.17016 1.31719C4.24673 1.3918 4.30392 1.48363 4.33685 1.58484L7.38164 10.1455H17.3755L19.1544 3.21298H9.06608C8.7813 3.21298 8.52872 3.03009 8.43984 2.75953C8.2998 2.33323 8.61737 1.89464 9.06608 1.89464H20.0272ZM18.7805 3.5096H9.06305C8.65012 3.5096 8.28387 3.24441 8.155 2.8521C7.95195 2.23397 8.41242 1.59802 9.06305 1.59802H20.0291C20.1718 1.59896 20.3125 1.63116 20.4412 1.6923C20.5686 1.75289 20.681 1.8404 20.7705 1.94866C20.8648 2.05852 20.9327 2.18807 20.9692 2.32759C21.006 2.46838 21.0099 2.61562 20.9805 2.75811L20.9792 2.76435L18.8672 11.0148M18.7805 3.5096L17.135 9.84884H7.60136L4.62275 1.4955L4.62224 1.49393C4.57449 1.34718 4.49156 1.21403 4.38054 1.10585C4.26959 0.997748 4.13387 0.917781 3.98495 0.872763L1.25356 0.0422902C1.13193 0.00531213 1.00412 -0.00760412 0.877446 0.00428294C0.750772 0.01617 0.627705 0.0526258 0.515271 0.111568C0.288201 0.230608 0.118228 0.434015 0.0427445 0.677043C-0.0327391 0.920072 -0.00755033 1.18281 0.11277 1.40747C0.23309 1.63212 0.438685 1.80029 0.684326 1.87497L2.92591 2.5545L5.87513 10.7946L4.92834 11.5599L4.82359 11.6636L4.81664 11.6715C4.50064 12.0318 4.32153 12.4898 4.31015 12.9667C4.29878 13.4436 4.45585 13.9095 4.75432 14.2841L4.75821 14.2889C4.96952 14.5431 5.23803 14.7449 5.54228 14.8781C5.84417 15.0102 6.17293 15.0712 6.50264 15.0563H17.6153C17.8715 15.0563 18.1173 14.9556 18.2984 14.7763C18.4796 14.5971 18.5814 14.354 18.5814 14.1005C18.5814 13.847 18.4796 13.6039 18.2984 13.4246C18.1172 13.2454 17.8715 13.1447 17.6153 13.1447H6.39542C6.37154 13.1433 6.34835 13.1361 6.32789 13.1238C6.30637 13.1108 6.28859 13.0925 6.27627 13.0708C6.26395 13.049 6.25752 13.0245 6.25758 12.9995C6.25761 12.9881 6.25901 12.9767 6.26172 12.9657L7.72969 11.7604H17.9051C18.1271 11.7649 18.3438 11.6936 18.5189 11.5585C18.695 11.4226 18.8181 11.2303 18.8672 11.0148M9.18053 18.2203C9.18053 19.2032 8.37514 20 7.38164 20C6.38814 20 5.58275 19.2032 5.58275 18.2203C5.58275 17.2373 6.38814 16.4405 7.38164 16.4405C8.37514 16.4405 9.18053 17.2373 9.18053 18.2203ZM18.2882 18.2203C18.2882 19.2032 17.4828 20 16.4893 20C15.4958 20 14.6905 19.2032 14.6905 18.2203C14.6905 17.2373 15.4958 16.4405 16.4893 16.4405C17.4828 16.4405 18.2882 17.2373 18.2882 18.2203ZM7.38164 19.7034C8.20955 19.7034 8.88071 19.0394 8.88071 18.2203C8.88071 17.4011 8.20955 16.7371 7.38164 16.7371C6.55372 16.7371 5.88257 17.4011 5.88257 18.2203C5.88257 19.0394 6.55372 19.7034 7.38164 19.7034ZM16.4893 19.7034C17.3173 19.7034 17.9884 19.0394 17.9884 18.2203C17.9884 17.4011 17.3173 16.7371 16.4893 16.7371C15.6614 16.7371 14.9903 17.4011 14.9903 18.2203C14.9903 19.0394 15.6614 19.7034 16.4893 19.7034Z" />
      </g>
   </symbol>

   <!-- Корзина с товаром -->
   <symbol id="cart" viewBox="0 0 22 21">
      <g>
         <path
            d="M7.38164 19.7034C8.20955 19.7034 8.88071 19.0394 8.88071 18.2203C8.88071 17.4011 8.20955 16.7371 7.38164 16.7371C6.55372 16.7371 5.88257 17.4011 5.88257 18.2203C5.88257 19.0394 6.55372 19.7034 7.38164 19.7034Z" />
         <path
            d="M16.4893 19.7034C17.3173 19.7034 17.9884 19.0394 17.9884 18.2203C17.9884 17.4011 17.3173 16.7371 16.4893 16.7371C15.6614 16.7371 14.9903 17.4011 14.9903 18.2203C14.9903 19.0394 15.6614 19.7034 16.4893 19.7034Z" />
         <path
            d="M20.5402 2.13853C20.4782 2.06292 20.4 2.00183 20.3113 1.95966C20.2226 1.91749 20.1256 1.89529 20.0272 1.89464H9.06608C8.61737 1.89464 8.2998 2.33323 8.43984 2.75953C8.52872 3.03009 8.7813 3.21298 9.06608 3.21298H19.1544L17.3755 10.1455H7.38164L4.33685 1.58484C4.30392 1.48363 4.24673 1.3918 4.17016 1.31719C4.09359 1.24259 3.99992 1.18741 3.89713 1.15638L1.16548 0.325828C1.08149 0.300292 0.993233 0.291373 0.905756 0.299582C0.818278 0.307791 0.733291 0.332967 0.655647 0.373671C0.498839 0.455877 0.38146 0.596345 0.329333 0.764174C0.277206 0.932002 0.294601 1.11344 0.377691 1.26858C0.46078 1.42372 0.602759 1.53985 0.772393 1.59143L3.16425 2.31651L6.22236 10.8969L5.1297 11.7802L5.04308 11.8659C4.77281 12.174 4.61961 12.5658 4.60988 12.9737C4.60016 13.3816 4.7345 13.78 4.98978 14.1005C5.17138 14.319 5.40213 14.4924 5.66359 14.6068C5.92505 14.7213 6.20996 14.7736 6.49552 14.7596H17.6153C17.792 14.7596 17.9615 14.6902 18.0864 14.5666C18.2114 14.4429 18.2816 14.2753 18.2816 14.1005C18.2816 13.9256 18.2114 13.758 18.0864 13.6344C17.9615 13.5107 17.792 13.4413 17.6153 13.4413H6.38892C6.3122 13.4387 6.23745 13.4166 6.17189 13.3771C6.10634 13.3375 6.05219 13.282 6.01468 13.2157C5.97717 13.1494 5.95757 13.0747 5.95777 12.9988C5.95797 12.9228 5.97796 12.8482 6.01582 12.7821L7.62149 11.4638H17.9085C18.0625 11.4675 18.213 11.4183 18.3345 11.3246C18.456 11.2308 18.5409 11.0983 18.5747 10.9497L20.6867 2.69883C20.707 2.60056 20.7043 2.49901 20.6789 2.40191C20.6535 2.30482 20.6061 2.21474 20.5402 2.13853Z" />
         <path
            d="M20.0272 1.89464C20.1256 1.89529 20.2226 1.91749 20.3113 1.95966C20.4 2.00183 20.4782 2.06292 20.5402 2.13853C20.6061 2.21474 20.6535 2.30482 20.6789 2.40191C20.7043 2.49901 20.707 2.60056 20.6867 2.69883L18.5747 10.9497C18.5409 11.0983 18.456 11.2308 18.3345 11.3246C18.213 11.4183 18.0625 11.4675 17.9085 11.4638H7.62149L6.01582 12.7821C5.97796 12.8482 5.95797 12.9228 5.95777 12.9988C5.95757 13.0747 5.97717 13.1494 6.01468 13.2157C6.05219 13.282 6.10634 13.3375 6.17189 13.3771C6.23745 13.4166 6.3122 13.4387 6.38892 13.4413H17.6153C17.792 13.4413 17.9615 13.5107 18.0864 13.6344C18.2114 13.758 18.2816 13.9256 18.2816 14.1005C18.2816 14.2753 18.2114 14.4429 18.0864 14.5666C17.9615 14.6902 17.792 14.7596 17.6153 14.7596H6.49552C6.20996 14.7736 5.92505 14.7213 5.66359 14.6068C5.40213 14.4924 5.17138 14.319 4.98978 14.1005C4.7345 13.78 4.60016 13.3816 4.60988 12.9737C4.61961 12.5658 4.77281 12.174 5.04308 11.8659L5.1297 11.7802L6.22236 10.8969L3.16425 2.31651L0.772393 1.59143C0.602759 1.53985 0.46078 1.42372 0.377691 1.26858C0.294601 1.11344 0.277206 0.932002 0.329333 0.764174C0.38146 0.596345 0.498839 0.455877 0.655647 0.373671C0.733291 0.332967 0.818278 0.307791 0.905756 0.299582C0.993233 0.291373 1.08149 0.300292 1.16548 0.325828L3.89713 1.15638C3.99992 1.18741 4.09359 1.24259 4.17016 1.31719C4.24673 1.3918 4.30392 1.48363 4.33685 1.58484L7.38164 10.1455H17.3755L19.1544 3.21298H9.06608C8.7813 3.21298 8.52872 3.03009 8.43984 2.75953C8.2998 2.33323 8.61737 1.89464 9.06608 1.89464H20.0272ZM18.7805 3.5096H9.06305C8.65012 3.5096 8.28387 3.24441 8.155 2.8521C7.95195 2.23397 8.41242 1.59802 9.06305 1.59802H20.0291C20.1718 1.59896 20.3125 1.63116 20.4412 1.6923C20.5686 1.75289 20.681 1.8404 20.7705 1.94866C20.8648 2.05852 20.9327 2.18807 20.9692 2.32759C21.006 2.46838 21.0099 2.61562 20.9805 2.75811L20.9792 2.76435L18.8672 11.0148M18.7805 3.5096L17.135 9.84884H7.60136L4.62275 1.4955L4.62224 1.49393C4.57449 1.34718 4.49156 1.21403 4.38054 1.10585C4.26959 0.997748 4.13387 0.917781 3.98495 0.872763L1.25356 0.0422902C1.13193 0.00531213 1.00412 -0.00760412 0.877446 0.00428294C0.750772 0.01617 0.627705 0.0526258 0.515271 0.111568C0.288201 0.230608 0.118228 0.434015 0.0427445 0.677043C-0.0327391 0.920072 -0.00755033 1.18281 0.11277 1.40747C0.23309 1.63212 0.438685 1.80029 0.684326 1.87497L2.92591 2.5545L5.87513 10.7946L4.92834 11.5599L4.82359 11.6636L4.81664 11.6715C4.50064 12.0318 4.32153 12.4898 4.31015 12.9667C4.29878 13.4436 4.45585 13.9095 4.75432 14.2841L4.75821 14.2889C4.96952 14.5431 5.23803 14.7449 5.54228 14.8781C5.84417 15.0102 6.17293 15.0712 6.50264 15.0563H17.6153C17.8715 15.0563 18.1173 14.9556 18.2984 14.7763C18.4796 14.5971 18.5814 14.354 18.5814 14.1005C18.5814 13.847 18.4796 13.6039 18.2984 13.4246C18.1172 13.2454 17.8715 13.1447 17.6153 13.1447H6.39542C6.37154 13.1433 6.34835 13.1361 6.32789 13.1238C6.30637 13.1108 6.28859 13.0925 6.27627 13.0708C6.26395 13.049 6.25752 13.0245 6.25758 12.9995C6.25761 12.9881 6.25901 12.9767 6.26172 12.9657L7.72969 11.7604H17.9051C18.1271 11.7649 18.3438 11.6936 18.5189 11.5585C18.695 11.4226 18.8181 11.2303 18.8672 11.0148M9.18053 18.2203C9.18053 19.2032 8.37514 20 7.38164 20C6.38814 20 5.58275 19.2032 5.58275 18.2203C5.58275 17.2373 6.38814 16.4405 7.38164 16.4405C8.37514 16.4405 9.18053 17.2373 9.18053 18.2203ZM18.2882 18.2203C18.2882 19.2032 17.4828 20 16.4893 20C15.4958 20 14.6905 19.2032 14.6905 18.2203C14.6905 17.2373 15.4958 16.4405 16.4893 16.4405C17.4828 16.4405 18.2882 17.2373 18.2882 18.2203ZM7.38164 19.7034C8.20955 19.7034 8.88071 19.0394 8.88071 18.2203C8.88071 17.4011 8.20955 16.7371 7.38164 16.7371C6.55372 16.7371 5.88257 17.4011 5.88257 18.2203C5.88257 19.0394 6.55372 19.7034 7.38164 19.7034ZM16.4893 19.7034C17.3173 19.7034 17.9884 19.0394 17.9884 18.2203C17.9884 17.4011 17.3173 16.7371 16.4893 16.7371C15.6614 16.7371 14.9903 17.4011 14.9903 18.2203C14.9903 19.0394 15.6614 19.7034 16.4893 19.7034Z" />
      </g>
   </symbol>

   <!-- Catalog button's icon -->
   <symbol id="menu" viewBox="0 0 24 24">
      <g>
         <path fill="var(--catalog-icon-color)" d="M1 13C1.55228 13 2 12.5523 2 12C2 11.4477 1.55228 11 1 11C0.447715 11 0 11.4477 0 12C0 12.5523 0.447715 13 1 13Z" />
         <path fill="var(--catalog-icon-color)" d="M22.7243 11H6.27571C5.57116 11 5 11.4209 5 11.94V12.06C5 12.5791 5.57116 13 6.27571 13H22.7243C23.4288 13 24 12.5791 24 12.06V11.94C24 11.4209 23.4288 11 22.7243 11Z" />
         <path fill="var(--catalog-icon-color)" d="M22.7467 17H1.25333C0.561136 17 0 17.4209 0 17.94V18.06C0 18.5791 0.561136 19 1.25333 19H22.7467C23.4389 19 24 18.5791 24 18.06V17.94C24 17.4209 23.4389 17 22.7467 17Z" />
         <path fill="var(--catalog-icon-color)" d="M22.7467 5H1.25333C0.561136 5 0 5.42085 0 5.94V6.06C0 6.57915 0.561136 7 1.25333 7H22.7467C23.4389 7 24 6.57915 24 6.06V5.94C24 5.42085 23.4389 5 22.7467 5Z" />
      </g>
   </symbol>

   <!-- twitter -->
   <symbol id="twitter" viewBox="0 0 20 16">
      <g>
         <path
            d="M19.6 1.89999C18.9 2.19999 18.1 2.4 17.3 2.5C18.1 2 18.8 1.2 19.1 0.300003C18.3 0.800003 17.5 1.1 16.5 1.3C15.8 0.500003 14.7 0 13.6 0C11.4 0 9.59999 1.8 9.59999 4C9.59999 4.3 9.6 4.59999 9.7 4.89999C6.4 4.69999 3.39999 3.1 1.39999 0.699997C1.09999 1.3 0.899994 2 0.899994 2.7C0.899994 4.1 1.6 5.3 2.7 6C2 6 1.39999 5.8 0.899994 5.5C0.899994 7.4 2.29999 9.09999 4.09999 9.39999C3.79999 9.49999 3.4 9.5 3 9.5C2.7 9.5 2.5 9.49999 2.2 9.39999C2.7 11 4.2 12.2 6 12.2C4.6 13.3 2.9 13.9 1 13.9C0.7 13.9 0.4 13.9 0 13.8C1.8 14.9 3.9 15.6 6.2 15.6C13.6 15.6 17.6 9.5 17.6 4.2V3.7C18.4 3.4 19.1 2.69999 19.6 1.89999Z" />
      </g>
   </symbol>

   <!-- facebook -->
   <symbol id="facebook" viewBox="0 0 17 17">
      <g>
         <path
            d="M17 2.81865C17 1.32124 15.6788 0 14.1813 0H2.81865C1.32124 0 0 1.32124 0 2.81865V14.1813C0 15.6787 1.32124 17 2.81865 17H8.54404V10.5699H6.43005V7.7513H8.54404V6.60622C8.54404 4.66839 9.95337 2.99481 11.715 2.99481H14.0052V5.81346H11.715C11.4508 5.81346 11.1865 6.07772 11.1865 6.60622V7.7513H14.0052V10.5699H11.1865V17H14.1813C15.6788 17 17 15.6787 17 14.1813V2.81865Z" />
      </g>
   </symbol>

   <!-- vk -->
   <symbol id="vk" viewBox="0 0 21 13">
      <g>
         <path
            d="M20.8061 11.1153C20.8061 11.0322 20.7231 11.0322 20.7231 10.9492C20.391 10.285 19.6438 9.4548 18.6475 8.54155C18.1494 8.12644 17.9003 7.79434 17.7343 7.62829C17.4852 7.2962 17.4852 7.04714 17.5683 6.71505C17.6513 6.46598 17.9834 6.05086 18.5645 5.30365C18.8966 4.88853 19.0626 4.63947 19.3117 4.3904C20.5571 2.72995 21.1382 1.65064 20.9722 1.1525L20.8892 1.06949C20.8061 0.986464 20.7231 0.903444 20.5571 0.903444C20.391 0.820421 20.142 0.820421 19.8929 0.903444H16.738C16.655 0.903444 16.655 0.903444 16.4889 0.903444C16.4059 0.903444 16.3229 0.903444 16.3229 0.903444H16.2399H16.1569L16.0738 0.986459C15.9908 1.06948 15.9908 1.06948 15.9908 1.1525C15.6587 2.06575 15.2436 2.81296 14.8285 3.64319C14.5794 4.05831 14.3303 4.47343 14.0813 4.80552C13.8322 5.13761 13.6662 5.38667 13.5001 5.55272C13.3341 5.71877 13.168 5.80179 13.085 5.96783C13.002 6.05086 12.8359 6.13389 12.8359 6.05086C12.7529 6.05086 12.6699 6.05086 12.6699 5.96783C12.5869 5.88481 12.5038 5.80179 12.4208 5.71876C12.3378 5.63574 12.3378 5.46969 12.2548 5.30365C12.2548 5.1376 12.2548 4.97156 12.2548 4.88853C12.2548 4.80551 12.2548 4.55645 12.2548 4.3904C12.2548 4.14134 12.2548 3.97528 12.2548 3.89226C12.2548 3.64319 12.2548 3.31111 12.2548 2.97902C12.2548 2.64693 12.2548 2.39785 12.2548 2.2318C12.2548 2.06576 12.2548 1.81669 12.2548 1.65065C12.2548 1.40158 12.2548 1.23553 12.2548 1.1525C12.2548 1.06948 12.1718 0.903439 12.1718 0.820416C12.0887 0.737393 12.0057 0.654367 11.9227 0.571344C11.8397 0.488322 11.6736 0.488324 11.5906 0.405301C11.1755 0.322278 10.6773 0.239258 10.0962 0.239258C8.76782 0.239258 7.85456 0.322283 7.52247 0.488329C7.35643 0.571352 7.19038 0.65437 7.10736 0.820416C6.94131 0.986462 6.94131 1.06949 7.02433 1.06949C7.43944 1.15251 7.77154 1.31855 7.93759 1.56762L8.02061 1.73367C8.10364 1.8167 8.10362 1.98273 8.18664 2.2318C8.26967 2.48087 8.26967 2.72994 8.26967 3.06203C8.26967 3.56017 8.26967 4.05831 8.26967 4.3904C8.26967 4.80552 8.18664 5.05458 8.18664 5.30365C8.18664 5.55272 8.10364 5.71877 8.02061 5.80179C7.93759 5.96784 7.93758 6.05086 7.85456 6.05086C7.85456 6.05086 7.85455 6.13388 7.77153 6.13388C7.68851 6.13388 7.60549 6.21691 7.43944 6.21691C7.35642 6.21691 7.19038 6.13389 7.10736 6.05086C6.94131 5.96784 6.77526 5.80179 6.69224 5.63575C6.5262 5.4697 6.36015 5.22063 6.1941 4.88853C6.02805 4.55644 5.77897 4.22436 5.61293 3.72622L5.4469 3.39413C5.36387 3.22809 5.19783 2.89599 5.03178 2.48087C4.86574 2.06576 4.69969 1.73367 4.53364 1.31856C4.45062 1.15251 4.3676 1.06948 4.28458 0.986459H4.20155C4.20155 0.986459 4.11852 0.903444 4.0355 0.903444C3.95248 0.903444 3.86946 0.820416 3.78644 0.820416H0.797609C0.465517 0.820416 0.299474 0.903436 0.216451 0.986459L0.133423 1.06949C0.133423 1.06949 0.133423 1.15251 0.133423 1.23553C0.133423 1.31855 0.133428 1.40157 0.216451 1.56762C0.631565 2.56389 1.1297 3.56017 1.62784 4.55645C2.12598 5.4697 2.62412 6.29993 2.95621 6.88109C3.37132 7.46225 3.70341 8.04341 4.11853 8.54155C4.53364 9.03969 4.7827 9.37178 4.86573 9.53782C5.03177 9.70387 5.11479 9.78689 5.19781 9.86991L5.4469 10.119C5.61294 10.285 5.86201 10.5341 6.1941 10.7832C6.52619 11.0322 6.9413 11.2813 7.35642 11.5304C7.77153 11.7794 8.26968 11.9455 8.76781 12.1115C9.34898 12.2776 9.84711 12.3606 10.3452 12.2776H11.5906C11.8397 12.2776 12.0057 12.1946 12.1718 12.0285L12.2548 11.9455C12.2548 11.8625 12.3378 11.8625 12.3378 11.7794C12.3378 11.6964 12.3378 11.6134 12.3378 11.4474C12.3378 11.1153 12.3378 10.8662 12.4208 10.6171C12.5038 10.3681 12.5039 10.202 12.5869 10.036C12.6699 9.86992 12.7529 9.78689 12.8359 9.70387C12.919 9.62084 13.002 9.53782 13.002 9.53782H13.085C13.251 9.4548 13.5001 9.53782 13.6662 9.70387C13.9152 9.86991 14.1643 10.119 14.3303 10.3681C14.4964 10.6171 14.7455 10.8662 15.0776 11.1983C15.4097 11.5304 15.6587 11.7794 15.8248 11.8625L16.0738 12.0285C16.2399 12.1115 16.4059 12.1946 16.655 12.2776C16.9041 12.3606 17.0701 12.3606 17.2361 12.3606L20.0589 12.2776C20.308 12.2776 20.5571 12.1946 20.7231 12.1115C20.8892 12.0285 20.9722 11.9455 20.9722 11.7794C20.9722 11.6964 20.9722 11.5304 20.9722 11.4474C20.8061 11.2813 20.8061 11.1983 20.8061 11.1153Z" />
      </g>
   </symbol>

   <!-- instagramm -->
   <symbol id="instagram" viewBox="0 0 17 17">
      <g>
         <path
            d="M14.5808 0H2.41923C1.04615 0 0 1.04615 0 2.41923V14.5808C0 15.9538 1.04615 17 2.41923 17H14.5808C15.9538 17 17 15.9538 17 14.5808V2.41923C17 1.04615 15.9538 0 14.5808 0ZM8.5 13.6C11.3115 13.6 13.6 11.3769 13.6 8.69615C13.6 8.23846 13.5346 7.71538 13.4038 7.32308H14.8423V14.2538C14.8423 14.5808 14.5808 14.9077 14.1885 14.9077H2.81154C2.48462 14.9077 2.15769 14.6462 2.15769 14.2538V7.25769H3.66154C3.53077 7.71538 3.46539 8.17308 3.46539 8.63077C3.4 11.3769 5.68846 13.6 8.5 13.6ZM8.5 11.6385C6.66923 11.6385 5.23077 10.2 5.23077 8.43462C5.23077 6.66923 6.66923 5.23077 8.5 5.23077C10.3308 5.23077 11.7692 6.66923 11.7692 8.43462C11.7692 10.2654 10.3308 11.6385 8.5 11.6385ZM14.7769 4.64231C14.7769 5.03461 14.45 5.36154 14.0577 5.36154H12.2269C11.8346 5.36154 11.5077 5.03461 11.5077 4.64231V2.87692C11.5077 2.48462 11.8346 2.15769 12.2269 2.15769H14.0577C14.45 2.15769 14.7769 2.48462 14.7769 2.87692V4.64231Z" />
      </g>
   </symbol>

   <!-- home -->
   <symbol id="home" viewBox="0 0 24 24">
      <g>
         <path
            d="M12.5901 1.41003L12.5897 1.40961C12.4339 1.25471 12.2231 1.16776 12.0034 1.16776C11.7836 1.16776 11.5729 1.25471 11.417 1.40961L11.4167 1.40995L1.41668 11.41L1.41633 11.4096L1.40803 11.4193C1.27178 11.5784 1.20058 11.7831 1.20867 11.9924C1.21675 12.2017 1.30352 12.4002 1.45164 12.5483C1.59975 12.6965 1.7983 12.7832 2.00761 12.7913C2.21692 12.7994 2.42158 12.7282 2.58068 12.592L2.581 12.5923L2.59002 12.5833L12 3.17334L21.41 12.5899L21.4096 12.5903L21.4194 12.5986C21.5785 12.7349 21.7831 12.8061 21.9924 12.798C22.2017 12.7899 22.4003 12.7031 22.5484 12.555C22.6965 12.4069 22.7833 12.2083 22.7914 11.999C22.7995 11.7897 22.7283 11.5851 22.592 11.426L22.5924 11.4257L22.5834 11.4167L12.5901 1.41003Z" />
         <path
            d="M18.5017 21.1682H16.3333C15.8722 21.1682 15.4983 20.7943 15.4983 20.3332V15.6665C15.4983 15.0231 14.9767 14.5015 14.3333 14.5015H9.66667C9.02325 14.5015 8.50167 15.0231 8.50167 15.6665V20.3332C8.50167 20.7943 8.12782 21.1682 7.66667 21.1682H5.49833V13.6093C5.49833 12.8684 4.60251 12.4973 4.07859 13.0212C3.92262 13.1772 3.835 13.3887 3.835 13.6093V21.3332C3.835 21.7306 3.99286 22.1117 4.27385 22.3927C4.55484 22.6737 4.93595 22.8315 5.33333 22.8315H9C9.64341 22.8315 10.165 22.3099 10.165 21.6665V16.9998C10.165 16.5387 10.5388 16.1648 11 16.1648H13C13.4612 16.1648 13.835 16.5387 13.835 16.9998V21.6665C13.835 22.3099 14.3566 22.8315 15 22.8315H18.6667C19.064 22.8315 19.4452 22.6737 19.7261 22.3927C20.0071 22.1117 20.165 21.7306 20.165 21.3332V13.4493C20.165 13.2287 20.0774 13.0172 19.9214 12.8612C19.3975 12.3373 18.5017 12.7084 18.5017 13.4493V21.1682Z" />
      </g>
   </symbol>

   <!-- arrow -->
   <symbol id="arrow" viewBox="0 0 11 7">
      <g>
         <path fill="var(--arrow-color-icon)" d="M5.79171 0.810932C5.6337 0.642511 5.3663 0.642511 5.20829 0.810932L0.502881 5.82632C0.263238 6.08175 0.444349 6.5 0.794595 6.5L10.2054 6.5C10.5557 6.5 10.7368 6.08175 10.4971 5.82632L5.79171 0.810932Z" />
      </g>
   </symbol>

   <!-- filter-icon -->
   <symbol id="filter-icon" viewBox="0 0 22 20">
      <g>
         <path fill="var(--filter-icon-color)" fill-rule="evenodd" clip-rule="evenodd" d="M0.0928956 0.579123C0.256754 0.225959 0.610687 0 1.00001 0H21C21.3893 0 21.7433 0.225959 21.9071 0.579123C22.071 0.932287 22.015 1.34845 21.7636 1.64573L14 10.8261V19C14 19.3466 13.8206 19.6684 13.5257 19.8507C13.2309 20.0329 12.8628 20.0494 12.5528 19.8944L8.5528 17.8944C8.21402 17.725 8.00001 17.3788 8.00001 17V10.8261L0.236443 1.64573C-0.0149541 1.34845 -0.0709627 0.932287 0.0928956 0.579123ZM3.15532 2L9.76358 9.81427C9.91625 9.9948 10 10.2236 10 10.46V16.382L12 17.382V10.46C12 10.2236 12.0838 9.9948 12.2364 9.81427L18.8447 2H3.15532Z" />
      </g>
   </symbol>

   <!-- delivery-icon -->
   <symbol id="delivery" viewBox="0 0 24 24">
      <g>
         <path fill="var(--product-icon-color)" d="M1 12.5V17.5C1 17.7652 1.10536 18.0196 1.29289 18.2071C1.48043 18.3946 1.73478 18.5 2 18.5H3C3 19.2956 3.31607 20.0587 3.87868 20.6213C4.44129 21.1839 5.20435 21.5 6 21.5C6.79565 21.5 7.55871 21.1839 8.12132 20.6213C8.68393 20.0587 9 19.2956 9 18.5H15C15 19.2956 15.3161 20.0587 15.8787 20.6213C16.4413 21.1839 17.2044 21.5 18 21.5C18.7956 21.5 19.5587 21.1839 20.1213 20.6213C20.6839 20.0587 21 19.2956 21 18.5H22C22.2652 18.5 22.5196 18.3946 22.7071 18.2071C22.8946 18.0196 23 17.7652 23 17.5V5.5C23 4.70435 22.6839 3.94129 22.1213 3.37868C21.5587 2.81607 20.7956 2.5 20 2.5H11C10.2044 2.5 9.44129 2.81607 8.87868 3.37868C8.31607 3.94129 8 4.70435 8 5.5V7.5H6C5.53426 7.5 5.07493 7.60844 4.65836 7.81672C4.24179 8.025 3.87944 8.32741 3.6 8.7L1.2 11.9C1.17075 11.9435 1.14722 11.9905 1.13 12.04L1.07 12.15C1.02587 12.2615 1.00216 12.3801 1 12.5ZM17 18.5C17 18.3022 17.0586 18.1089 17.1685 17.9444C17.2784 17.78 17.4346 17.6518 17.6173 17.5761C17.8 17.5004 18.0011 17.4806 18.1951 17.5192C18.3891 17.5578 18.5673 17.653 18.7071 17.7929C18.847 17.9327 18.9422 18.1109 18.9808 18.3049C19.0194 18.4989 18.9996 18.7 18.9239 18.8827C18.8482 19.0654 18.72 19.2216 18.5556 19.3315C18.3911 19.4414 18.1978 19.5 18 19.5C17.7348 19.5 17.4804 19.3946 17.2929 19.2071C17.1054 19.0196 17 18.7652 17 18.5ZM10 5.5C10 5.23478 10.1054 4.98043 10.2929 4.79289C10.4804 4.60536 10.7348 4.5 11 4.5H20C20.2652 4.5 20.5196 4.60536 20.7071 4.79289C20.8946 4.98043 21 5.23478 21 5.5V16.5H20.22C19.9388 16.1906 19.5961 15.9435 19.2138 15.7743C18.8315 15.6052 18.418 15.5178 18 15.5178C17.582 15.5178 17.1685 15.6052 16.7862 15.7743C16.4039 15.9435 16.0612 16.1906 15.78 16.5H10V5.5ZM8 11.5H4L5.2 9.9C5.29315 9.7758 5.41393 9.675 5.55279 9.60557C5.69164 9.53615 5.84475 9.5 6 9.5H8V11.5ZM5 18.5C5 18.3022 5.05865 18.1089 5.16853 17.9444C5.27841 17.78 5.43459 17.6518 5.61732 17.5761C5.80004 17.5004 6.00111 17.4806 6.19509 17.5192C6.38907 17.5578 6.56725 17.653 6.70711 17.7929C6.84696 17.9327 6.9422 18.1109 6.98079 18.3049C7.01937 18.4989 6.99957 18.7 6.92388 18.8827C6.84819 19.0654 6.72002 19.2216 6.55557 19.3315C6.39112 19.4414 6.19778 19.5 6 19.5C5.73478 19.5 5.48043 19.3946 5.29289 19.2071C5.10536 19.0196 5 18.7652 5 18.5ZM3 13.5H8V16.28C7.40983 15.7526 6.63513 15.4797 5.84469 15.5209C5.05425 15.5621 4.31212 15.914 3.78 16.5H3V13.5Z" />
      </g>
   </symbol>
   
   <!-- purse-icon -->
   <symbol id="purse" viewBox="0 0 24 24">
      <g>
         <path fill="var(--product-icon-color)" d="M19 7H18V6C18 5.20435 17.6839 4.44129 17.1213 3.87868C16.5587 3.31607 15.7956 3 15 3H5C4.20435 3 3.44129 3.31607 2.87868 3.87868C2.31607 4.44129 2 5.20435 2 6V18C2 18.7956 2.31607 19.5587 2.87868 20.1213C3.44129 20.6839 4.20435 21 5 21H19C19.7956 21 20.5587 20.6839 21.1213 20.1213C21.6839 19.5587 22 18.7956 22 18V10C22 9.20435 21.6839 8.44129 21.1213 7.87868C20.5587 7.31607 19.7956 7 19 7ZM5 5H15C15.2652 5 15.5196 5.10536 15.7071 5.29289C15.8946 5.48043 16 5.73478 16 6V7H5C4.73478 7 4.48043 6.89464 4.29289 6.70711C4.10536 6.51957 4 6.26522 4 6C4 5.73478 4.10536 5.48043 4.29289 5.29289C4.48043 5.10536 4.73478 5 5 5ZM20 15H19C18.7348 15 18.4804 14.8946 18.2929 14.7071C18.1054 14.5196 18 14.2652 18 14C18 13.7348 18.1054 13.4804 18.2929 13.2929C18.4804 13.1054 18.7348 13 19 13H20V15ZM20 11H19C18.2044 11 17.4413 11.3161 16.8787 11.8787C16.3161 12.4413 16 13.2044 16 14C16 14.7956 16.3161 15.5587 16.8787 16.1213C17.4413 16.6839 18.2044 17 19 17H20V18C20 18.2652 19.8946 18.5196 19.7071 18.7071C19.5196 18.8946 19.2652 19 19 19H5C4.73478 19 4.48043 18.8946 4.29289 18.7071C4.10536 18.5196 4 18.2652 4 18V8.83C4.32127 8.94302 4.65943 9.00051 5 9H19C19.2652 9 19.5196 9.10536 19.7071 9.29289C19.8946 9.48043 20 9.73478 20 10V11Z" />
      </g>
   </symbol>
</svg>
